<svg xmlns="http://www.w3.org/2000/svg" viewBox="0, 0, 1226.6, 383.45" font-family="SauceCodePro Nerd Font, Source Code Pro, Courier" font-size="14"><g fill="#D3D3D3"><rect x="0" y="0" width="1226.6" height="383.45" fill="#000000"/><path d="M0,35.5146875 L168.02734375,35.5146875 Z" stroke="#D3D3D3"/><text x="0" y="33.55" font-weight="bold">Open Git URL Utility</text><text x="16.8" y="71.55">  Open various URLs for a Git(hub) repository. </text><path d="M0,111.5146875 L58.8095703125,111.5146875 Z" stroke="#D3D3D3"/><text x="0" y="109.55" font-weight="bold">Options</text><text x="16.8" y="147.55" font-weight="bold">-f</text><text x="33.61" y="147.55">, </text><text x="50.41" y="147.55" font-weight="bold">--file</text><path d="M109.2177734375,149.5146875 L184.830078125,149.5146875 Z" stroke="#D3D3D3"/><text x="109.22" y="147.55">file-path</text><text x="915.75" y="147.55">                                                                                       File (or directory) to process for   </text><text x="915.75" y="166.55">                                                                                                             opening its Web URL                  </text><text x="16.8" y="185.55" font-weight="bold">-b</text><text x="33.61" y="185.55">, </text><text x="50.41" y="185.55" font-weight="bold">--branch</text><path d="M126.0205078125,187.5146875 L218.435546875,187.5146875 Z" stroke="#D3D3D3"/><text x="126.02" y="185.55">branch-name</text><text x="915.75" y="185.55">                                                                                   Optional branch to view (Defaults to </text><text x="915.75" y="204.55">                                                                                                             current branch)                      </text><text x="16.8" y="223.55" font-weight="bold">-t</text><text x="33.61" y="223.55">, </text><text x="50.41" y="223.55" font-weight="bold">--type</text><path d="M109.2177734375,225.5146875 L890.544921875,225.5146875 Z" stroke="#D3D3D3"/><text x="109.22" y="223.55">[&#x22;view&#x22; (or &#x22;blob&#x22;)|&#x22;raw&#x22;|&#x22;blame&#x22;|&#x22;history&#x22;|&#x22;edit&#x22;|&#x22;delete&#x22;|&#x22;directory&#x22; (or &#x22;tree&#x22;)|&#x22;commit&#x22;]</text><text x="915.75" y="223.55">   Type of operation.  Defaults to      </text><text x="915.75" y="242.55">                                                                                                             &#x22;view&#x22;.                              </text><text x="16.8" y="261.55" font-weight="bold">-d</text><text x="33.61" y="261.55">, </text><text x="50.41" y="261.55" font-weight="bold">--diff</text><path d="M109.2177734375,263.5146875 L352.857421875,263.5146875 Z" stroke="#D3D3D3"/><text x="109.22" y="261.55">[&#x22;unified&#x22;|&#x22;split&#x22;|&#x22;default&#x22;]</text><text x="915.75" y="261.55">                                                                   Diff (for the &#x22;commit&#x22; type).        </text><text x="915.75" y="280.55">                                                                                                             Defaults to &#x22;default&#x22; (whatever is   </text><text x="915.75" y="299.55">                                                                                                             on use at Github).                   </text><text x="16.8" y="318.55" font-weight="bold">-s</text><text x="33.61" y="318.55">, </text><text x="50.41" y="318.55" font-weight="bold">--sha</text><path d="M100.81640625,320.5146875 L126.0205078125,320.5146875 Z" stroke="#D3D3D3"/><text x="100.82" y="318.55">SHA</text><text x="915.75" y="318.55">                                                                                              The commit SHA                       </text><text x="16.8" y="337.55" font-weight="bold">-h</text><text x="33.61" y="337.55">, </text><text x="50.41" y="337.55" font-weight="bold">--help</text><text x="915.75" y="337.55">                                                                                                 Display this help guide              </text><text x="16.8" y="356.55" font-weight="bold">-v</text><text x="33.61" y="356.55">, </text><text x="50.41" y="356.55" font-weight="bold">--version</text></g></svg>